<svg width="28" height="26" viewBox="0 0 28 26" fill="none" xmlns="http://www.w3.org/2000/svg">
    <path d="M8.13517 14.9891C8.92204 14.9891 9.68263 14.9383 10.4024 14.8437V6.95479C9.6827 6.86024 8.92204 6.80942 8.13517 6.80942C3.64228 6.80942 6.10352e-05 8.46132 6.10352e-05 10.4991V11.2993C6.10352e-05 13.3371 3.64228 14.9891 8.13517 14.9891Z" fill="#2D8D9D"/>
    <path d="M8.13517 19.1083C8.92204 19.1083 9.68263 19.0575 10.4024 18.963V16.6507C9.68249 16.7452 8.92225 16.7967 8.13517 16.7967C4.21337 16.7967 0.940039 15.538 0.171156 13.8627C0.0591844 14.1068 6.10352e-05 14.3594 6.10352e-05 14.6184V15.4186C6.10352e-05 17.4564 3.64228 19.1083 8.13517 19.1083Z" fill="#2D8D9D"/>
    <path d="M10.4023 20.9498V20.7701C9.68243 20.8646 8.92219 20.9161 8.13511 20.9161C4.21331 20.9161 0.939978 19.6574 0.171095 17.9821C0.0591234 18.2261 0 18.4787 0 18.7378V19.5379C0 21.5758 3.64222 23.2277 8.13511 23.2277C9.0336 23.2277 9.89779 23.1615 10.7059 23.0395C10.5056 22.6297 10.4023 22.1976 10.4023 21.7499V20.9498Z" fill="#2D8D9D"/>
    <path d="M19.8649 0.560303C15.372 0.560303 11.7298 2.21221 11.7298 4.25001V5.0502C11.7298 7.08801 15.372 8.73991 19.8649 8.73991C24.3577 8.73991 28 7.08801 28 5.0502V4.25001C28 2.21221 24.3577 0.560303 19.8649 0.560303Z" fill="#2D8D9D"/>
    <path d="M19.8649 10.5476C15.9431 10.5476 12.6698 9.28897 11.9009 7.61365C11.7889 7.8576 11.7298 8.11027 11.7298 8.36935V9.16954C11.7298 11.2073 15.372 12.8593 19.8649 12.8593C24.3577 12.8593 28 11.2073 28 9.16954V8.36935C28 8.11027 27.9409 7.8576 27.8289 7.61365C27.06 9.28897 23.7867 10.5476 19.8649 10.5476Z" fill="#2D8D9D"/>
    <path d="M19.8649 14.6671C15.9431 14.6671 12.6698 13.4083 11.9009 11.7331C11.7889 11.977 11.7298 12.2297 11.7298 12.4888V13.289C11.7298 15.3268 15.372 16.9787 19.8649 16.9787C24.3577 16.9787 28 15.3268 28 13.289V12.4888C28 12.2297 27.9409 11.977 27.8289 11.7331C27.06 13.4084 23.7867 14.6671 19.8649 14.6671Z" fill="#2D8D9D"/>
    <path d="M19.8649 19.0088C15.9431 19.0088 12.6698 17.7501 11.9009 16.0748C11.7889 16.3189 11.7298 16.5715 11.7298 16.8305V17.6307C11.7298 19.6685 15.372 21.3204 19.8649 21.3204C24.3577 21.3204 28 19.6685 28 17.6307V16.8305C28 16.5715 27.9409 16.3187 27.8289 16.0748C27.06 17.75 23.7867 19.0088 19.8649 19.0088Z" fill="#2D8D9D"/>
    <path d="M19.8649 23.1281C15.9431 23.1281 12.6698 21.8694 11.9009 20.1942C11.7889 20.4382 11.7298 20.6909 11.7298 20.9498V21.75C11.7298 23.7878 15.372 25.4397 19.8649 25.4397C24.3577 25.4397 28 23.7878 28 21.75V20.9497C28 20.6907 27.9409 20.438 27.8289 20.1941C27.06 21.8693 23.7867 23.1281 19.8649 23.1281Z" fill="#2D8D9D"/>
</svg>
