<svg width="26" height="26" viewBox="0 0 26 26" fill="none" xmlns="http://www.w3.org/2000/svg">
    <path d="M25.932 9.97252C25.7608 9.44606 25.2939 9.07332 24.7436 9.02353L17.2382 8.34214L14.272 1.39769C14.053 0.887487 13.5547 0.558197 13 0.558197C12.4454 0.558197 11.9469 0.887487 11.7293 1.39769L8.7631 8.34214L1.25648 9.02353C0.706204 9.07432 0.240239 9.44705 0.0680558 9.97252C-0.103135 10.499 0.0549635 11.0764 0.471139 11.4414L6.14465 16.4163L4.47181 23.7841C4.34942 24.3258 4.55969 24.886 5.00919 25.2109C5.2508 25.3865 5.53467 25.4742 5.81952 25.4742C6.06431 25.4742 6.30929 25.4091 6.52809 25.2782L13 21.4084L19.4708 25.2782C19.9455 25.5618 20.5424 25.5358 20.9909 25.2109C21.4404 24.886 21.6506 24.3258 21.5282 23.7841L19.8554 16.4163L25.5289 11.4414C25.9449 11.0764 26.1032 10.5002 25.932 9.97252Z" fill="#FDC107"/>
</svg>
