<svg width="28" height="22" viewBox="0 0 28 22" fill="none" xmlns="http://www.w3.org/2000/svg">
    <path d="M8.49443 0.124939C5.67633 0.124939 3.38367 2.5558 3.38367 5.5437C3.38367 8.53161 5.67633 10.9625 8.49443 10.9625C11.3125 10.9625 13.6053 8.53161 13.6053 5.5437C13.6053 2.5558 11.3126 0.124939 8.49443 0.124939Z" fill="#154B67"/>
    <path d="M20.114 0.900391C20.1024 0.900391 20.0907 0.900445 20.0792 0.9005C18.8965 0.910289 17.7918 1.40964 16.9687 2.30668C16.16 3.18786 15.7202 4.35035 15.7303 5.57994C15.7405 6.80954 16.1994 7.96459 17.0225 8.83237C17.8521 9.70688 18.951 10.1871 20.1206 10.1871C20.1323 10.1871 20.1441 10.1871 20.1559 10.187C21.3386 10.1772 22.4433 9.67784 23.2664 8.78086C24.0751 7.89968 24.5149 6.73719 24.5048 5.50754C24.4837 2.95943 22.5174 0.900391 20.114 0.900391Z" fill="#154B67"/>
    <path d="M20.3296 11.0742H19.9052C17.9288 11.0742 16.1252 11.8256 14.7635 13.0572C15.1042 13.3186 15.4285 13.6035 15.7358 13.9109C16.6426 14.8176 17.3546 15.8741 17.8522 17.051C18.3007 18.1109 18.5566 19.2276 18.6162 20.3777H28.0001V18.7441C28.0001 14.5152 24.5591 11.0742 20.3296 11.0742Z" fill="#154B67"/>
    <path d="M16.9723 20.3777C16.8175 17.8845 15.5537 15.6915 13.6675 14.2861C12.2954 13.2634 10.5935 12.658 8.75 12.658H8.23922C3.68867 12.6581 0 16.3467 0 20.8972V21.875H16.9887V20.8972C16.9887 20.7228 16.9832 20.5494 16.9723 20.3777Z" fill="#154B67"/>
</svg>
