<svg width="36" height="36" viewBox="0 0 36 36" xmlns="http://www.w3.org/2000/svg">
    <g >
        <path d="M21.3333 9.07198L18.458 6.19671C18.3277 6.06637 18.1539 5.99964 17.9741 6.00003C17.7911 5.99828 17.6134 6.06637 17.483 6.19671L14.6671 9.01266C14.4033 9.27646 14.4033 9.70533 14.6671 9.96893L15.0302 10.332C15.2848 10.5867 15.7293 10.5867 15.9841 10.332L17.0622 9.25168V13.2218C17.0622 13.2338 17.0692 13.2438 17.0713 13.2551C17.1006 13.6011 17.3907 13.8748 17.7445 13.8748H18.2577C18.6305 13.8748 18.9371 13.572 18.9371 13.1991V12.7558C18.9371 12.7539 18.9371 12.7525 18.9371 12.7509V9.31061L20.0155 10.3912C20.2793 10.655 20.7072 10.655 20.9708 10.3912L21.3333 10.0284C21.5971 9.76445 21.5971 9.33539 21.3333 9.07198Z" />
        <path d="M21.3332 25.9722L20.9702 25.6084C20.7156 25.3534 20.2709 25.3534 20.0159 25.6084L18.9375 26.689V23.2639C18.9375 23.262 18.9375 23.2608 18.9375 23.259V22.8157C18.9375 22.4427 18.6308 22.125 18.2583 22.125H17.7447C17.3914 22.125 17.1012 22.4058 17.0718 22.7521C17.0696 22.7636 17.0626 22.7812 17.0626 22.7931V26.7483L15.9846 25.668C15.7298 25.4131 15.2843 25.4131 15.0295 25.668L14.6666 26.0311C14.4031 26.2947 14.4035 26.7237 14.6673 26.9875L17.4835 29.8033C17.6105 29.9307 17.7801 30 17.9551 30H17.9804C18.1617 30 18.3309 29.9309 18.4581 29.8033L21.3332 26.9282C21.597 26.6646 21.597 26.2358 21.3332 25.9722Z" />
        <path d="M13.1829 17.0623H13.1251H12.7374C12.736 17.0623 12.7347 17.0623 12.7331 17.0623H9.32439L10.405 15.9876C10.5324 15.8603 10.6024 15.6933 10.6024 15.5125C10.6024 15.3314 10.5324 15.163 10.405 15.036L10.0418 14.6736C9.77804 14.4098 9.34897 14.4102 9.08556 14.674L6.2103 17.5491C6.07996 17.6792 6.0103 17.8539 6.01381 18.033C6.0101 18.2193 6.07996 18.3938 6.2103 18.5241L9.02624 21.3403C9.15814 21.4722 9.33121 21.5381 9.50448 21.5381C9.67775 21.5381 9.85082 21.4722 9.98272 21.3403L10.3456 20.9773C10.473 20.8501 10.5433 20.6802 10.5433 20.4993C10.5433 20.3182 10.4732 20.1465 10.3456 20.0195L9.26546 18.9374H13.2033C13.2152 18.9374 13.2348 18.9344 13.2461 18.9323C13.5922 18.903 13.8749 18.6168 13.8749 18.2632V17.7493C13.8749 17.3768 13.5557 17.0623 13.1829 17.0623Z"/>
        <path d="M29.7894 17.5493L26.9142 14.6744C26.6506 14.4106 26.2215 14.4106 25.9579 14.6744L25.5952 15.0375C25.4678 15.1646 25.3975 15.3345 25.3975 15.5154C25.3975 15.6964 25.4676 15.8603 25.5952 15.9876L26.6755 17.0623H23.245C23.2432 17.0623 23.2419 17.0623 23.2403 17.0623H22.7972C22.4243 17.0623 22.125 17.3766 22.125 17.7493V18.2632C22.125 18.6168 22.3964 18.9026 22.7427 18.9321C22.7543 18.9344 22.7626 18.9374 22.7744 18.9374H26.7347L25.6539 20.0193C25.5267 20.1463 25.4564 20.3176 25.4564 20.4981C25.4564 20.6794 25.5265 20.8497 25.6539 20.9769L26.0172 21.3401C26.1489 21.472 26.322 21.5381 26.4953 21.5381C26.6685 21.5381 26.8414 21.4721 26.9733 21.3402L29.7896 18.5241C29.9196 18.3942 29.9892 18.2195 29.9861 18.0402C29.989 17.8539 29.9194 17.6792 29.7894 17.5493Z"/>
        <path d="M18.0004 16.1238C16.9661 16.1238 16.1245 16.9653 16.1245 17.9998C16.1245 19.0342 16.9661 19.8759 18.0004 19.8759C19.0347 19.8759 19.8764 19.0342 19.8764 17.9998C19.8764 16.9653 19.0347 16.1238 18.0004 16.1238Z"/>
    </g>
    <defs>
        <filter id="dark" x="0" y="0" width="36" height="36" filterUnits="userSpaceOnUse" color-interpolation-filters="sRGB">
            <feFlood flood-opacity="0" result="BackgroundImageFix"/>
            <feColorMatrix in="SourceAlpha" type="matrix" values="0 0 0 0 0 0 0 0 0 0 0 0 0 0 0 0 0 0 127 0"/>
            <feOffset dx="2" dy="2"/>
            <feGaussianBlur stdDeviation="2"/>
            <feColorMatrix type="matrix" values="0 0 0 0 0 0 0 0 0 0 0 0 0 0 0 0 0 0 0.25 0"/>
            <feBlend mode="normal" in2="BackgroundImageFix" result="effect1_dropShadow"/>
            <feColorMatrix in="SourceAlpha" type="matrix" values="0 0 0 0 0 0 0 0 0 0 0 0 0 0 0 0 0 0 127 0"/>
            <feOffset dx="-2" dy="-2"/>
            <feGaussianBlur stdDeviation="2"/>
            <feColorMatrix type="matrix" values="0 0 0 0 1 0 0 0 0 1 0 0 0 0 1 0 0 0 0.6 0"/>
            <feBlend mode="normal" in2="effect1_dropShadow" result="effect2_dropShadow"/>
            <feBlend mode="normal" in="SourceGraphic" in2="effect2_dropShadow" result="shape"/>
        </filter>
        <filter id="light" x="0" y="0" width="36" height="36" filterUnits="userSpaceOnUse" color-interpolation-filters="sRGB">
            <feFlood flood-opacity="0" result="BackgroundImageFix"/>
            <feColorMatrix in="SourceAlpha" type="matrix" values="0 0 0 0 0 0 0 0 0 0 0 0 0 0 0 0 0 0 127 0"/>
            <feOffset dx="2" dy="2"/>
            <feGaussianBlur stdDeviation="2"/>
            <feColorMatrix type="matrix" values="0 0 0 0 0 0 0 0 0 0 0 0 0 0 0 0 0 0 0.15 0"/>
            <feBlend mode="normal" in2="BackgroundImageFix" result="effect1_dropShadow"/>
            <feColorMatrix in="SourceAlpha" type="matrix" values="0 0 0 0 0 0 0 0 0 0 0 0 0 0 0 0 0 0 127 0"/>
            <feOffset dx="-2" dy="-2"/>
            <feGaussianBlur stdDeviation="2"/>
            <feColorMatrix type="matrix" values="0 0 0 0 1 0 0 0 0 1 0 0 0 0 1 0 0 0 0.8 0"/>
            <feBlend mode="normal" in2="effect1_dropShadow" result="effect2_dropShadow"/>
            <feBlend mode="normal" in="SourceGraphic" in2="effect2_dropShadow" result="shape"/>
        </filter>
    </defs>
</svg>
