<svg width="24" height="24" viewBox="0 0 24 24" xmlns="http://www.w3.org/2000/svg">
	<path d="M17.0625 8.06537C17.8909 8.06537 18.5625 7.3938 18.5625 6.56538C18.5625 5.73695 17.8909 5.06538 17.0625 5.06538C16.2341 5.06538 15.5625 5.73695 15.5625 6.56538C15.5625 7.3938 16.2341 8.06537 17.0625 8.06537Z"/>
	<path d="M23.7411 7.77847C23.2404 6.50376 22.3224 4.66453 20.7919 3.14129C19.2669 1.6233 17.4471 0.731551 16.1891 0.250709C14.808 -0.277148 13.2386 0.0555693 12.1909 1.0983L8.50947 4.7625C7.41817 5.84864 7.10364 7.51991 7.72675 8.92124C7.91997 9.35586 8.13011 9.78097 8.35464 10.1917L0.274593 18.2717C0.0987652 18.4475 0 18.686 0 18.9346V23.0596C0 23.5774 0.419717 23.9971 0.937496 23.9971H5.06248C5.58026 23.9971 5.99998 23.5774 5.99998 23.0596V21.3721L7.68747 21.3721C8.20525 21.3721 8.62497 20.9524 8.62497 20.4346V18.7471H10.3125C10.8302 18.7471 11.25 18.3274 11.25 17.8096C11.25 17.2919 10.8302 16.8721 10.3125 16.8721H7.68747C7.16969 16.8721 6.74997 17.2919 6.74997 17.8096V19.4971L5.06248 19.4971C4.5447 19.4971 4.12498 19.9168 4.12498 20.4346V22.1221H1.87499V19.3229L10.1885 11.0095C10.4939 10.7041 10.5511 10.2296 10.3271 9.86028C10.0022 9.32478 9.70379 8.75253 9.44012 8.15943C9.13079 7.46376 9.28838 6.63271 9.83227 6.09136L13.5137 2.4272C14.0393 1.90412 14.8267 1.7373 15.5198 2.00214C16.6084 2.4182 18.1772 3.18404 19.4693 4.47019C20.7694 5.76412 21.5609 7.35613 21.9959 8.46379C22.2673 9.15509 22.1024 9.94048 21.5756 10.4647L17.8497 14.1732C17.3072 14.7131 16.4974 14.871 15.7865 14.5754C15.2002 14.3315 14.6324 14.0418 14.099 13.7144C13.6578 13.4436 13.0805 13.5818 12.8096 14.023C12.5388 14.4643 12.6769 15.0416 13.1182 15.3125C13.7347 15.6908 14.3902 16.0253 15.0664 16.3065C16.4793 16.8943 18.091 16.5784 19.1724 15.5021L22.8983 11.7937C23.9551 10.7419 24.2859 9.16583 23.7411 7.77847Z"/>
</svg>
