<svg width="28" height="28" viewBox="0 0 28 28" fill="none" xmlns="http://www.w3.org/2000/svg">
    <path d="M6.42836 12.8334H0.595009C0.273009 12.8334 0.0116577 13.0947 0.0116577 13.4167V27.4167C0.0116577 27.7387 0.273009 28 0.595009 28H6.42836C6.75036 28 7.01171 27.7387 7.01171 27.4167V13.4167C7.01166 13.0947 6.75151 12.8334 6.42836 12.8334Z" fill="#154B67"/>
    <path d="M16.905 0H11.0716C10.7496 0 10.4883 0.261352 10.4883 0.583352V27.4167C10.4883 27.7387 10.7496 28.0001 11.0716 28.0001H16.905C17.227 28.0001 17.4883 27.7387 17.4883 27.4167V0.583352C17.4883 0.261352 17.227 0 16.905 0Z" fill="#154B67"/>
    <path d="M27.405 5.83337H21.5716C21.2496 5.83337 20.9883 6.09473 20.9883 6.41673V27.4167C20.9883 27.7387 21.2496 28.0001 21.5716 28.0001H27.405C27.727 28.0001 27.9883 27.7387 27.9883 27.4167V6.41673C27.9883 6.09467 27.727 5.83337 27.405 5.83337Z" fill="#154B67"/>
</svg>
