<svg width="29" height="29" viewBox="0 0 29 29" xmlns="http://www.w3.org/2000/svg">
    <path d="M13.8016 16.2071C14.1245 16.6513 14.6455 16.9167 15.1951 16.9167C15.6542 16.9167 16.0868 16.7374 16.4121 16.4121C16.7683 16.0559 16.9505 15.5633 16.9114 15.0602C16.8722 14.557 16.6156 14.0984 16.2062 13.8006L9.94995 9.27517C9.75855 9.13694 9.49319 9.15821 9.32499 9.32544C9.15679 9.49364 9.13601 9.75851 9.27473 9.95039L13.8016 16.2071Z"/>
    <path d="M14.5 0C14.2327 0 14.0167 0.21605 14.0167 0.483333V6.9078C14.0167 7.17508 14.2327 7.39113 14.5 7.39113C14.7673 7.39113 14.9833 7.17508 14.9833 6.9078V0.975367C22.2232 1.23057 28.0333 7.19973 28.0333 14.5C28.0333 21.9622 21.9622 28.0333 14.5 28.0333C7.03782 28.0333 0.966667 21.9622 0.966667 14.5C0.966667 10.8943 2.36833 7.50182 4.91357 4.9474C5.10255 4.75793 5.10158 4.45247 4.9126 4.26397C4.72313 4.07643 4.41767 4.07643 4.22917 4.26493C1.50172 7.00157 0 10.6367 0 14.5C0 22.4953 6.5047 29 14.5 29C22.4953 29 29 22.4953 29 14.5C29 6.5047 22.4953 0 14.5 0Z"/>
</svg>
