<svg width="17" height="16" viewBox="0 0 17 16" xmlns="http://www.w3.org/2000/svg">
    <path d="M8.49962 11.0923C8.02436 11.0923 7.62598 11.4907 7.62598 11.966C7.62598 12.4413 8.02436 12.8397 8.49962 12.8397C8.95741 12.8397 9.37327 12.4413 9.3523 11.987C9.37327 11.4872 8.97838 11.0923 8.49962 11.0923Z"/>
    <path d="M16.5863 14.1886C17.135 13.2415 17.1385 12.1128 16.5933 11.1692L11.1207 1.69185C10.5791 0.737819 9.60059 0.171692 8.50328 0.171692C7.40597 0.171692 6.42748 0.741313 5.88582 1.68835L0.406265 11.1762C-0.138894 12.1302 -0.1354 13.266 0.416749 14.213C0.961909 15.1496 1.93691 15.7122 3.02723 15.7122H13.9584C15.0522 15.7122 16.0342 15.1426 16.5863 14.1886ZM15.3982 13.5036C15.0941 14.0278 14.556 14.3388 13.9549 14.3388H3.02373C2.42965 14.3388 1.89497 14.0348 1.59793 13.5211C1.29739 13.0004 1.2939 12.3784 1.59443 11.8542L7.07399 2.3698C7.37103 1.8491 7.90221 1.54158 8.50328 1.54158C9.10086 1.54158 9.63554 1.8526 9.93258 2.3733L15.4086 11.8577C15.7022 12.3679 15.6987 12.9829 15.3982 13.5036Z"/>
    <path d="M8.28286 4.95932C7.867 5.07814 7.6084 5.45555 7.6084 5.91335C7.62937 6.18942 7.64684 6.46899 7.66781 6.74507C7.72722 7.79694 7.78662 8.82786 7.84603 9.87973C7.867 10.2362 8.14307 10.4948 8.49952 10.4948C8.85598 10.4948 9.13554 10.2187 9.15302 9.85877C9.15302 9.6421 9.15302 9.44291 9.17398 9.22275C9.21243 8.54829 9.25436 7.87383 9.2928 7.19937C9.31377 6.76254 9.35221 6.32571 9.37318 5.88889C9.37318 5.73163 9.35221 5.59184 9.2928 5.45206C9.11458 5.06066 8.69872 4.86147 8.28286 4.95932Z"/>
</svg>
